<?xml version="1.0" encoding="UTF-8" standalone="no"?>
<!DOCTYPE svg PUBLIC "-//W3C//DTD SVG 1.1//EN" "http://www.w3.org/Graphics/SVG/1.1/DTD/svg11.dtd">
<!-- Created with Vectornator (http://vectornator.io/) -->
<svg height="100%" stroke-miterlimit="10" style="fill-rule:nonzero;clip-rule:evenodd;stroke-linecap:round;stroke-linejoin:round;" version="1.1" viewBox="0 0 1024 1024" width="100%" xml:space="preserve" xmlns="http://www.w3.org/2000/svg" xmlns:xlink="http://www.w3.org/1999/xlink">
<defs/>
<g id="Ebene-1">
<g opacity="1">
<path d="M224.874 279.188C224.874 512 224.874 512 224.874 744.812C480.957 744.812 480.957 744.812 737.04 744.812C737.04 512 737.04 512 737.04 279.188C480.957 279.188 480.957 279.188 224.874 279.188Z" fill="#fefefe" fill-rule="nonzero" opacity="1" stroke="none"/>
<path d="M264.156 726.479C326.125 726.384 326.125 726.384 388.094 726.29C388.518 653.255 385.052 539.089 389.365 507.184C393.064 479.821 402.727 469.898 410.559 460.236C443.265 419.889 495.851 420.681 530.051 458.225C535.609 464.326 540.062 471.954 543.233 480.041C547.601 491.183 551.891 502.969 552.39 515.201C555.133 582.522 552.734 649.994 552.907 717.391C597.937 697.709 638.914 662.366 659.477 609.781C666.755 591.17 672.806 571.601 675.79 551.452C681.774 511.045 676.02 467.445 662.979 429.352C650.968 394.266 629.947 369.475 605.838 344.581C580.696 318.621 541.753 304.766 509.301 301.74C484.877 299.463 460.238 299.324 435.795 301.305C419.967 302.588 404.081 305.729 389.007 311.49C374.372 317.084 360.257 325.065 347.473 335.063C333.002 346.379 319.494 359.718 307.926 374.895C287.855 401.229 275.31 435.331 267.158 469.221C265.063 477.929 263.51 486.953 263.405 495.994C262.508 572.816 263.905 649.65 264.156 726.479Z" fill="#072641" fill-rule="nonzero" opacity="1" stroke="none"/>
</g>
<path d="M424.342 611.028C424.342 585.717 444.86 565.199 470.171 565.199C495.482 565.199 516 585.717 516 611.028C516 636.338 495.482 656.857 470.171 656.857C444.86 656.857 424.342 636.338 424.342 611.028Z" fill="#f4e86a" fill-rule="nonzero" opacity="1" stroke="none"/>
</g>
</svg>
